<svg xmlns="http://www.w3.org/2000/svg" xmlns:xlink="http://www.w3.org/1999/xlink" viewBox="0 0 689.47 224.73"><defs><style>.cls-1,.cls-12,.cls-19,.cls-32,.cls-37{fill:none;}.cls-2{isolation:isolate;}.cls-20,.cls-3{fill:#7f7a53;}.cls-4{fill:#9e9a6b;}.cls-5{fill:#9f9b6b;}.cls-6{fill:url(#linear-gradient);}.cls-7{fill:#5e5f5e;}.cls-8{fill:url(#linear-gradient-2);}.cls-9{mix-blend-mode:darken;fill:url(#linear-gradient-3);}.cls-10{fill:#b6b6b7;}.cls-10,.cls-13,.cls-14,.cls-15,.cls-16,.cls-17,.cls-18,.cls-21{mix-blend-mode:overlay;}.cls-11{opacity:0.3;}.cls-12{stroke:#d2d2d2;}.cls-12,.cls-19,.cls-20,.cls-22,.cls-23,.cls-24,.cls-25,.cls-26,.cls-27,.cls-32,.cls-33,.cls-34{stroke-miterlimit:10;}.cls-13{fill:#d2d2d2;}.cls-14{fill:#2d2d2d;}.cls-15{fill:#515252;}.cls-16{fill:#6c6b6e;}.cls-17{fill:#868686;}.cls-18{fill:#a0a0a1;}.cls-19{stroke:#575757;}.cls-20,.cls-22,.cls-23{stroke-width:2.03px;}.cls-20{stroke:url(#linear-gradient-4);}.cls-21{fill:#3f4040;opacity:0.27;}.cls-22{fill:#968c63;stroke:url(#linear-gradient-5);}.cls-23{fill:#6d6746;stroke:url(#linear-gradient-6);}.cls-24{fill:#999265;stroke:url(#linear-gradient-7);}.cls-24,.cls-25{stroke-width:1.01px;}.cls-25,.cls-27,.cls-33,.cls-34{fill:#b5ab71;}.cls-25{stroke:url(#linear-gradient-8);}.cls-26{fill:#aaa174;stroke:url(#linear-gradient-9);}.cls-26,.cls-27{stroke-width:0.72px;}.cls-27{stroke:url(#linear-gradient-10);}.cls-28{opacity:0.4;fill:url(#linear-gradient-11);}.cls-29{opacity:0.5;fill:url(#linear-gradient-12);}.cls-30{fill:url(#linear-gradient-13);}.cls-31{clip-path:url(#clip-path);}.cls-32{stroke:#676767;stroke-width:3px;}.cls-33,.cls-34{stroke-width:0.81px;}.cls-33{stroke:url(#linear-gradient-14);}.cls-34{stroke:url(#linear-gradient-15);}.cls-35{fill:#ead861;}.cls-36{fill:#fff;}.cls-37{stroke:#939598;stroke-width:0.83px;}.cls-38{clip-path:url(#clip-path-2);}.cls-39{opacity:0.51;}.cls-40{clip-path:url(#clip-path-4);}</style><linearGradient id="linear-gradient" x1="327.57" y1="-123.43" x2="403.84" y2="-123.43" gradientTransform="matrix(0, -1, 1, 0, 196.87, 534.54)" gradientUnits="userSpaceOnUse"><stop offset="0" stop-color="#b7b297"/><stop offset="0.53" stop-color="#b5ab71"/><stop offset="1" stop-color="#636243"/></linearGradient><linearGradient id="linear-gradient-2" x1="327.57" y1="207.1" x2="403.84" y2="207.1" gradientTransform="translate(38.27 -38.27)" gradientUnits="userSpaceOnUse"><stop offset="0.16" stop-color="#b5ab71"/><stop offset="1" stop-color="#9f9b6b"/></linearGradient><linearGradient id="linear-gradient-3" x1="587.79" y1="176.1" x2="664.05" y2="176.1" gradientTransform="translate(-221.95 -7.27)" gradientUnits="userSpaceOnUse"><stop offset="0" stop-color="#706d4b"/><stop offset="0.47" stop-color="#b5ab71"/><stop offset="1" stop-color="#b7b297"/></linearGradient><linearGradient id="linear-gradient-4" x1="309.81" y1="435.07" x2="338.59" y2="435.07" gradientTransform="matrix(0, -1, 1, 0, 196.87, 534.54)" gradientUnits="userSpaceOnUse"><stop offset="0.12" stop-color="#b5ab71"/><stop offset="1" stop-color="#706d4b"/></linearGradient><linearGradient id="linear-gradient-5" x1="392.82" y1="435.07" x2="421.6" y2="435.07" gradientTransform="matrix(0, -1, 1, 0, 196.87, 534.54)" gradientUnits="userSpaceOnUse"><stop offset="0.53" stop-color="#999160"/><stop offset="1" stop-color="#706d4b"/></linearGradient><linearGradient id="linear-gradient-6" x1="361.31" y1="437.38" x2="370.1" y2="437.38" gradientTransform="matrix(0, -1, 1, 0, 196.87, 534.54)" gradientUnits="userSpaceOnUse"><stop offset="0.53" stop-color="#b5ab71"/><stop offset="1" stop-color="#706d4b"/></linearGradient><linearGradient id="linear-gradient-7" x1="315.64" y1="262.51" x2="327.66" y2="262.51" xlink:href="#linear-gradient-4"/><linearGradient id="linear-gradient-8" x1="403.74" y1="262.51" x2="415.77" y2="262.51" xlink:href="#linear-gradient-6"/><linearGradient id="linear-gradient-9" x1="315.78" y1="152.08" x2="327.52" y2="152.08" gradientTransform="matrix(0, -1, 1, 0, 196.87, 534.54)" gradientUnits="userSpaceOnUse"><stop offset="0.12" stop-color="#b5ab71"/><stop offset="1" stop-color="#9e9969"/></linearGradient><linearGradient id="linear-gradient-10" x1="403.89" y1="152.08" x2="415.63" y2="152.08" xlink:href="#linear-gradient-6"/><linearGradient id="linear-gradient-11" x1="349.16" y1="-85.56" x2="392.01" y2="-97.64" gradientTransform="matrix(0, -1, 1, 0, 196.87, 534.54)" gradientUnits="userSpaceOnUse"><stop offset="0" stop-color="#fff"/><stop offset="0.09" stop-color="#f5f3eb"/><stop offset="0.26" stop-color="#dad5b9"/><stop offset="0.47" stop-color="#b5ab71"/><stop offset="1" stop-color="#636243"/></linearGradient><linearGradient id="linear-gradient-12" x1="347.6" y1="-143.66" x2="383.81" y2="-143.66" gradientTransform="translate(-312.5 312.5)" gradientUnits="userSpaceOnUse"><stop offset="0" stop-color="#fff"/><stop offset="0.11" stop-color="#f5f3eb"/><stop offset="0.33" stop-color="#dad5b9"/><stop offset="0.61" stop-color="#b5ab71"/><stop offset="0.61" stop-color="#b9b079"/><stop offset="0.96" stop-color="#636243"/></linearGradient><linearGradient id="linear-gradient-13" x1="351.26" y1="-167.36" x2="387.99" y2="-180.17" gradientTransform="matrix(0, -1, 1, 0, 196.87, 534.54)" gradientUnits="userSpaceOnUse"><stop offset="0" stop-color="#fff"/><stop offset="0.11" stop-color="#f5f3eb"/><stop offset="0.33" stop-color="#dad5b9"/><stop offset="0.61" stop-color="#b5ab71"/><stop offset="0.78" stop-color="#b9b079"/><stop offset="0.96" stop-color="#75724e" stop-opacity="0.76"/><stop offset="1" stop-color="#636243" stop-opacity="0.7"/></linearGradient><clipPath id="clip-path"><polygon class="cls-1" points="135.47 130.7 72.19 150.7 72.19 150.73 34.23 150.73 11.41 160.22 11.41 177.44 34.23 186.94 72.19 186.94 72.19 186.96 135.47 206.96 188.41 206.96 731.41 206.96 731.41 130.7 188.41 130.7 135.47 130.7"/></clipPath><linearGradient id="linear-gradient-14" x1="365.76" y1="152.03" x2="375.65" y2="152.03" xlink:href="#linear-gradient-6"/><linearGradient id="linear-gradient-15" x1="614.14" y1="152.03" x2="624.02" y2="152.03" gradientTransform="matrix(0, 1, 1, 0, 196.87, -445.25)" xlink:href="#linear-gradient-6"/><clipPath id="clip-path-2"><rect class="cls-1" x="170.76" y="141.46" width="56.25" height="55.49"/></clipPath><clipPath id="clip-path-4"><rect class="cls-1" x="167.93" y="139.26" width="61.91" height="58.01"/></clipPath></defs><g class="cls-2"><g id="Layer_2" data-name="Layer 2"><g id="Layer_2-2" data-name="Layer 2"><rect class="cls-3" x="651.18" y="193.42" width="43.28" height="17.31" transform="translate(470.74 874.89) rotate(-90)"/><rect class="cls-3" x="651.18" y="126.94" width="43.28" height="17.31" transform="translate(537.23 808.41) rotate(-90)"/><rect class="cls-4" x="35.1" y="149.85" width="36.21" height="37.96" transform="translate(-115.63 222.04) rotate(-90)"/><polygon class="cls-5" points="72.19 150.7 72.19 186.96 135.47 206.96 135.47 130.7 72.19 150.7"/><polygon class="cls-4" points="11.41 160.22 11.41 177.44 34.23 186.94 34.23 150.73 11.41 160.22"/><polygon class="cls-6" points="72.19 150.7 72.19 150.73 34.23 150.73 11.41 160.22 11.41 177.44 34.23 186.94 72.19 186.94 72.19 186.96 135.47 206.96 135.47 130.7 72.19 150.7"/><path class="cls-7" d="M0,169H0a5.38,5.38,0,0,0,3.12,5.11l8.29,3.28V160.24l-7.95,3.14A6,6,0,0,0,0,169Z"/><rect class="cls-4" x="365.84" y="-99.67" width="76.26" height="537" transform="translate(235.14 572.81) rotate(-90)"/><rect class="cls-8" x="365.84" y="-99.67" width="76.26" height="537" transform="translate(235.14 572.81) rotate(-90)"/><rect class="cls-9" x="365.84" y="-99.67" width="76.26" height="537" transform="translate(572.81 -235.14) rotate(90)"/><rect class="cls-10" x="159.95" y="106.22" width="76.26" height="125.22" transform="translate(366.92 -29.25) rotate(90)"/><g class="cls-11"><line class="cls-12" x1="147.37" y1="180.44" x2="147.37" y2="157.23"/><line class="cls-12" x1="153.37" y1="180.44" x2="153.37" y2="157.23"/></g><g class="cls-11"><line class="cls-12" x1="239.48" y1="180.44" x2="239.48" y2="157.23"/><line class="cls-12" x1="245.48" y1="180.44" x2="245.48" y2="157.23"/></g><g class="cls-11"><line class="cls-12" x1="491.54" y1="180.44" x2="491.54" y2="157.23"/><line class="cls-12" x1="497.54" y1="180.44" x2="497.54" y2="157.23"/></g><g class="cls-11"><line class="cls-12" x1="550.98" y1="180.44" x2="550.98" y2="157.23"/><line class="cls-12" x1="556.98" y1="180.44" x2="556.98" y2="157.23"/></g><rect class="cls-13" x="35.1" y="149.85" width="36.21" height="37.96" transform="translate(-115.63 222.04) rotate(-90)"/><polygon class="cls-13" points="11.41 160.22 11.41 177.44 34.23 186.94 34.23 150.73 11.41 160.22"/><rect class="cls-14" x="568.1" y="100.59" width="76.26" height="136.49" transform="translate(775.06 -437.39) rotate(90)"/><rect class="cls-15" x="467.02" y="136" width="76.26" height="65.66" transform="translate(673.98 -336.32) rotate(90)"/><rect class="cls-16" x="401.44" y="136.08" width="76.26" height="65.5" transform="translate(608.4 -270.74) rotate(90)"/><rect class="cls-17" x="320.83" y="120.97" width="76.26" height="95.72" transform="translate(527.79 -190.13) rotate(90)"/><rect class="cls-18" x="247.77" y="143.63" width="76.26" height="50.41" transform="translate(454.73 -117.06) rotate(90)"/><line class="cls-19" x1="260.69" y1="206.96" x2="260.69" y2="130.7"/><line class="cls-19" x1="311.1" y1="206.96" x2="311.1" y2="130.7"/><line class="cls-19" x1="406.82" y1="206.96" x2="406.82" y2="130.7"/><line class="cls-19" x1="472.32" y1="206.96" x2="472.32" y2="130.7"/><line class="cls-19" x1="537.82" y1="206.96" x2="537.82" y2="130.7"/><polygon class="cls-20" points="688.44 196.96 688.44 223.72 652.2 223.72 580.09 196.96 688.44 196.96"/><polygon class="cls-21" points="689.47 224.72 689.47 195.96 575.94 195.96 651.95 224.72 689.47 224.72"/><polygon class="cls-22" points="688.44 140.7 688.44 113.95 652.2 113.95 580.09 140.7 688.44 140.7"/><polygon class="cls-23" points="688.44 172.21 688.44 165.46 580.22 165.46 580.09 172.21 688.44 172.21"/><polygon class="cls-24" points="492.81 207.38 492.81 218.4 459.36 218.4 428.36 207.38 492.81 207.38"/><polygon class="cls-25" points="492.81 130.29 492.81 119.27 459.36 119.27 428.36 130.29 492.81 130.29"/><polygon class="cls-21" points="425.89 130.7 493.43 130.7 493.43 118.86 459.2 118.86 425.89 130.7"/><polygon class="cls-26" points="365.84 207.38 365.84 218.4 348.71 218.4 332.85 207.38 365.84 207.38"/><polygon class="cls-27" points="365.84 130.29 365.84 119.27 348.71 119.27 332.85 130.29 365.84 130.29"/><polygon class="cls-21" points="331.58 130.7 366.15 130.7 366.15 118.86 348.64 118.86 331.58 130.7"/><polygon class="cls-13" points="72.19 150.7 72.19 186.96 135.47 206.96 135.47 130.7 72.19 150.7"/><polygon class="cls-28" points="72.19 150.7 72.19 186.96 135.47 206.96 135.47 130.7 72.19 150.7"/><rect class="cls-29" x="35.1" y="149.85" width="36.21" height="37.96" transform="translate(-115.63 222.04) rotate(-90)"/><polygon class="cls-30" points="11.41 160.22 11.41 177.44 34.23 186.94 34.23 150.73 11.41 160.22"/><g class="cls-31"><line class="cls-19" x1="72.19" y1="188.94" x2="72.19" y2="148.73"/><line class="cls-19" x1="34.23" y1="186.94" x2="34.23" y2="150.73"/><line class="cls-32" x1="135.47" y1="210.96" x2="135.47" y2="127.7"/></g><polygon class="cls-21" points="580.09 173.21 689.47 173.21 689.47 164.46 579.96 164.46 580.09 173.21"/><polygon class="cls-33" points="365.8 168.37 365.8 159.3 347.56 159.3 333.01 168.37 365.8 168.37"/><polygon class="cls-21" points="331.58 168.83 366.15 168.83 366.15 158.83 347.48 158.83 331.58 168.83"/><polygon class="cls-34" points="365.8 169.3 365.8 178.37 347.56 178.37 333.01 169.3 365.8 169.3"/><polygon class="cls-21" points="331.58 168.83 366.15 168.83 366.15 178.84 347.48 178.84 331.58 168.83"/><polygon class="cls-21" points="366.15 218.81 366.15 206.96 331.58 206.96 348.64 218.81 366.15 218.81"/><polygon class="cls-21" points="493.43 218.81 493.43 206.96 425.89 206.96 459.2 218.81 493.43 218.81"/><polygon class="cls-21" points="575.94 141.7 689.47 141.7 689.47 112.95 651.95 112.95 575.94 141.7"/><polygon class="cls-21" points="575.94 141.7 689.47 141.7 689.47 112.95 651.95 112.95 575.94 141.7"/><path class="cls-35" d="M95.81,41.55A20.78,20.78,0,1,0,75,20.77,20.77,20.77,0,0,0,95.81,41.55"/><path class="cls-35" d="M159.48,53.22a20.78,20.78,0,1,0-20.77-20.78,20.78,20.78,0,0,0,20.77,20.78"/><path class="cls-35" d="M301.46,55.23a20.78,20.78,0,1,0-34.37,0Z"/><path class="cls-35" d="M355.49,55.23a20.77,20.77,0,0,0-41.53,0Z"/><path class="cls-35" d="M448.92,55.23a20.76,20.76,0,0,0-37,0Z"/><path class="cls-35" d="M509.14,55.23a20.74,20.74,0,0,0-26.2,0Z"/><path class="cls-36" d="M83.76,79.38a18.86,18.86,0,0,0-1.86,7.09h4.95v3.27H78.32V88.37a22.09,22.09,0,0,1,2.4-9.9c2.4-5.1,2.78-6,2.78-10.77,0-3.89-.35-4.42-1.11-4.42-1,0-1.25.72-1.25,3a22.79,22.79,0,0,0,.23,2.81l-2.86.27a20.87,20.87,0,0,1-.23-3.16c0-3.88,1.22-5.71,4.23-5.71s4.38,1.6,4.38,7.42A21.4,21.4,0,0,1,83.76,79.38Z"/><path class="cls-36" d="M97.58,85.48c0,3.12-1.9,4.53-4.6,4.53-2.55,0-4.57-1.41-4.57-4.57V65.34c0-3.43,2-4.84,4.57-4.84s4.6,1.26,4.6,4.76ZM94.12,64.73c0-1-.5-1.45-1.14-1.45s-1.11.42-1.11,1.41V86.08A1.08,1.08,0,0,0,93,87.26a1.1,1.1,0,0,0,1.11-1.18Z"/><path class="cls-36" d="M104.59,79.38a18.7,18.7,0,0,0-1.87,7.09h5v3.27H99.14V88.37a22.09,22.09,0,0,1,2.4-9.9c2.4-5.1,2.78-6,2.78-10.77,0-3.89-.34-4.42-1.1-4.42-1,0-1.26.72-1.26,3a22.79,22.79,0,0,0,.23,2.81l-2.86.27a20.87,20.87,0,0,1-.23-3.16c0-3.88,1.22-5.71,4.23-5.71s4.38,1.6,4.38,7.42A21.4,21.4,0,0,1,104.59,79.38Z"/><path class="cls-36" d="M118.41,85.48c0,3.12-1.91,4.53-4.61,4.53-2.55,0-4.57-1.41-4.57-4.57V65.34c0-3.43,2-4.84,4.57-4.84s4.61,1.26,4.61,4.76Zm-3.47-20.75c0-1-.49-1.45-1.14-1.45s-1.1.42-1.1,1.41V86.08a1.12,1.12,0,1,0,2.24,0Z"/><polyline class="cls-37" points="72.11 150.88 72.11 54.8 119.92 54.8"/><path class="cls-36" d="M147.44,79.94A18.65,18.65,0,0,0,145.57,87h5V90.3H142V88.92A22.19,22.19,0,0,1,144.39,79c2.4-5.11,2.78-6,2.78-10.78,0-3.88-.34-4.41-1.1-4.41-1,0-1.26.72-1.26,3a24.91,24.91,0,0,0,.23,2.82l-2.85.27a19.73,19.73,0,0,1-.23-3.16c0-3.89,1.22-5.71,4.22-5.71s4.38,1.6,4.38,7.42A21.43,21.43,0,0,1,147.44,79.94Z"/><path class="cls-36" d="M161.26,86c0,3.12-1.9,4.53-4.61,4.53-2.55,0-4.57-1.41-4.57-4.57V65.89c0-3.42,2-4.83,4.57-4.83s4.61,1.25,4.61,4.76Zm-3.47-20.75c0-1-.49-1.44-1.14-1.44s-1.1.41-1.1,1.4v21.4a1.08,1.08,0,0,0,1.14,1.18,1.1,1.1,0,0,0,1.1-1.18Z"/><path class="cls-36" d="M168.26,79.94A18.45,18.45,0,0,0,166.4,87h4.95V90.3h-8.53V88.92a22.08,22.08,0,0,1,2.4-9.89c2.4-5.11,2.78-6,2.78-10.78,0-3.88-.35-4.41-1.11-4.41-1,0-1.25.72-1.25,3a24.86,24.86,0,0,0,.22,2.82l-2.85.27a19.73,19.73,0,0,1-.23-3.16c0-3.89,1.22-5.71,4.23-5.71s4.37,1.6,4.37,7.42A21.43,21.43,0,0,1,168.26,79.94Z"/><path class="cls-36" d="M181.17,86.15c0,2.66-1.45,4.41-4.49,4.41s-4-1.79-4-5.56a21.44,21.44,0,0,1,.19-3.31l2.89.27a16,16,0,0,0-.19,2.47c0,3,.34,3.39,1.18,3.39.69,0,.95-.38.95-1.56V78.87c0-1.94-.64-2.43-1.75-2.43h-.3V74h.15c1.14,0,1.79-.5,1.79-2.36V65.21c0-1.07-.31-1.41-.91-1.41-.88,0-1.15.68-1.15,3.65a12.43,12.43,0,0,0,.19,2.25l-2.89.27a24.38,24.38,0,0,1-.19-3.2c0-4.08,1.29-5.68,4.19-5.68s4.11,1.3,4.11,4.27v6A3.39,3.39,0,0,1,178.31,75v.15a3.23,3.23,0,0,1,2.86,3.54Z"/><polyline class="cls-37" points="135.79 130.71 135.79 55.36 183.59 55.36"/><path class="cls-36" d="M272.23,79.94A18.65,18.65,0,0,0,270.36,87h4.95V90.3h-8.53V88.92a22.08,22.08,0,0,1,2.4-9.89c2.4-5.11,2.78-6,2.78-10.78,0-3.88-.34-4.41-1.1-4.41-1,0-1.26.72-1.26,3a22.79,22.79,0,0,0,.23,2.82l-2.86.27a21.24,21.24,0,0,1-.22-3.16c0-3.89,1.21-5.71,4.22-5.71s4.38,1.6,4.38,7.42A21.43,21.43,0,0,1,272.23,79.94Z"/><path class="cls-36" d="M286.05,86c0,3.12-1.91,4.53-4.61,4.53s-4.57-1.41-4.57-4.57V65.89c0-3.42,2-4.83,4.57-4.83s4.61,1.25,4.61,4.76Zm-3.47-20.75c0-1-.49-1.44-1.14-1.44s-1.1.41-1.1,1.4v21.4a1.08,1.08,0,0,0,1.14,1.18,1.1,1.1,0,0,0,1.1-1.18Z"/><path class="cls-36" d="M293.05,79.94A18.45,18.45,0,0,0,291.19,87h4.94V90.3h-8.52V88.92A22.19,22.19,0,0,1,290,79c2.4-5.11,2.78-6,2.78-10.78,0-3.88-.34-4.41-1.1-4.41-1,0-1.26.72-1.26,3a24.91,24.91,0,0,0,.23,2.82l-2.85.27a19.73,19.73,0,0,1-.23-3.16c0-3.89,1.22-5.71,4.22-5.71s4.38,1.6,4.38,7.42A21.43,21.43,0,0,1,293.05,79.94Z"/><path class="cls-36" d="M306.22,84.05h-1.9V90.3h-3.39V84.05h-4.64V82l5-20.6h3.05V81.65h1.9Zm-5.29-2.4V71.79h-.19l-2,9.86Z"/><polyline class="cls-37" points="260.58 130.71 260.58 55.36 308.38 55.36"/><path class="cls-36" d="M322.68,79.94A18.45,18.45,0,0,0,320.82,87h4.94V90.3h-8.52V88.92A22.19,22.19,0,0,1,319.63,79c2.4-5.11,2.78-6,2.78-10.78,0-3.88-.34-4.41-1.1-4.41-1,0-1.26.72-1.26,3a24.91,24.91,0,0,0,.23,2.82l-2.85.27a19.73,19.73,0,0,1-.23-3.16c0-3.89,1.22-5.71,4.22-5.71s4.38,1.6,4.38,7.42A21.43,21.43,0,0,1,322.68,79.94Z"/><path class="cls-36" d="M336.5,86c0,3.12-1.9,4.53-4.61,4.53-2.55,0-4.57-1.41-4.57-4.57V65.89c0-3.42,2-4.83,4.57-4.83s4.61,1.25,4.61,4.76ZM333,65.28c0-1-.5-1.44-1.15-1.44s-1.1.41-1.1,1.4v21.4a1.08,1.08,0,0,0,1.14,1.18A1.11,1.11,0,0,0,333,86.64Z"/><path class="cls-36" d="M343.5,79.94A18.82,18.82,0,0,0,341.64,87h4.95V90.3h-8.53V88.92a22.08,22.08,0,0,1,2.4-9.89c2.4-5.11,2.78-6,2.78-10.78,0-3.88-.35-4.41-1.11-4.41-1,0-1.25.72-1.25,3a24.86,24.86,0,0,0,.22,2.82l-2.85.27a19.73,19.73,0,0,1-.23-3.16c0-3.89,1.22-5.71,4.23-5.71s4.37,1.6,4.37,7.42A21.43,21.43,0,0,1,343.5,79.94Z"/><path class="cls-36" d="M352,90.56c-3.08,0-4.15-1.9-4.15-5.75a20.72,20.72,0,0,1,.23-3.12l2.74.27a19.56,19.56,0,0,0-.19,2.74c0,2.47.3,3.08,1.29,3.08s1.49-.49,1.49-7.15c0-6.1-.53-6.55-1.56-6.55-.73,0-1.22.87-1.37,2.32H348l.58-15.19a32.12,32.12,0,0,0,4.15.23,23,23,0,0,0,3.42-.23,10.19,10.19,0,0,1,.08,1.07c0,1.56-.88,2.13-3.09,2.13a10.48,10.48,0,0,1-1.59-.12l-.42,7.92h.15a2.37,2.37,0,0,1,1.79-1c2.78,0,3.73,2.48,3.73,9.14C356.79,88.77,355.57,90.56,352,90.56Z"/><polyline class="cls-37" points="311.03 130.71 311.03 55.36 358.84 55.36"/><path class="cls-36" d="M418.38,79.94A18.65,18.65,0,0,0,416.51,87h4.95V90.3h-8.52V88.92A22.19,22.19,0,0,1,415.33,79c2.4-5.11,2.78-6,2.78-10.78,0-3.88-.34-4.41-1.1-4.41-1,0-1.26.72-1.26,3a24.91,24.91,0,0,0,.23,2.82l-2.85.27a19.73,19.73,0,0,1-.23-3.16c0-3.89,1.22-5.71,4.22-5.71s4.38,1.6,4.38,7.42A21.43,21.43,0,0,1,418.38,79.94Z"/><path class="cls-36" d="M432.2,86c0,3.12-1.91,4.53-4.61,4.53C425,90.56,423,89.15,423,86V65.89c0-3.42,2-4.83,4.57-4.83s4.61,1.25,4.61,4.76Zm-3.47-20.75c0-1-.49-1.44-1.14-1.44s-1.1.41-1.1,1.4v21.4a1.08,1.08,0,0,0,1.14,1.18,1.1,1.1,0,0,0,1.1-1.18Z"/><path class="cls-36" d="M439.2,79.94A18.63,18.63,0,0,0,437.34,87h5V90.3h-8.53V88.92a22.08,22.08,0,0,1,2.4-9.89c2.4-5.11,2.78-6,2.78-10.78,0-3.88-.35-4.41-1.11-4.41-1,0-1.25.72-1.25,3a24.86,24.86,0,0,0,.22,2.82l-2.85.27a19.73,19.73,0,0,1-.23-3.16c0-3.89,1.22-5.71,4.23-5.71s4.37,1.6,4.37,7.42A21.43,21.43,0,0,1,439.2,79.94Z"/><path class="cls-36" d="M452.34,64c-1.56,4.34-2.67,9.44-3.35,17.05-.27,2.86-.35,5.41-.35,7.43,0,.68,0,1.48.08,1.83h-3.66c0-2.52.2-5.79.61-9.79A91,91,0,0,1,449,64.37H443.5v-3h8.84Z"/><polyline class="cls-37" points="406.73 130.71 406.73 55.36 454.54 55.36"/><path class="cls-36" d="M484,79.94A18.65,18.65,0,0,0,482.13,87h4.95V90.3h-8.53V88.92A22.08,22.08,0,0,1,481,79c2.4-5.11,2.78-6,2.78-10.78,0-3.88-.34-4.41-1.11-4.41-1,0-1.25.72-1.25,3a22.79,22.79,0,0,0,.23,2.82l-2.86.27a21,21,0,0,1-.23-3.16c0-3.89,1.22-5.71,4.23-5.71s4.38,1.6,4.38,7.42A21.52,21.52,0,0,1,484,79.94Z"/><path class="cls-36" d="M497.81,86c0,3.12-1.9,4.53-4.6,4.53-2.55,0-4.57-1.41-4.57-4.57V65.89c0-3.42,2-4.83,4.57-4.83s4.6,1.25,4.6,4.76Zm-3.46-20.75c0-1-.5-1.44-1.14-1.44s-1.11.41-1.11,1.4v21.4a1.09,1.09,0,0,0,1.15,1.18,1.1,1.1,0,0,0,1.1-1.18Z"/><path class="cls-36" d="M504.82,79.94A18.65,18.65,0,0,0,503,87h4.95V90.3h-8.52V88.92A22.19,22.19,0,0,1,501.77,79c2.4-5.11,2.78-6,2.78-10.78,0-3.88-.34-4.41-1.1-4.41-1,0-1.26.72-1.26,3a24.91,24.91,0,0,0,.23,2.82l-2.85.27a19.73,19.73,0,0,1-.23-3.16c0-3.89,1.21-5.71,4.22-5.71s4.38,1.6,4.38,7.42A21.43,21.43,0,0,1,504.82,79.94Z"/><path class="cls-36" d="M518.26,85.54c0,3.27-1.41,5-4.19,5-3.2,0-4.3-1.94-4.3-5.33a15.79,15.79,0,0,1,.26-3.12l2.82.27a14.08,14.08,0,0,0-.19,2.59c0,2.43.34,2.81,1.14,2.81s1-.38,1-1.41V77.62l-.11,0a2.69,2.69,0,0,1-2.13,1.22c-1.87,0-3.09-1.11-3.09-4.15V66c0-3.65,1.79-5,4.38-5s4.42,1.22,4.42,4.87Zm-3.47-20c0-1.33-.26-1.67-.91-1.67s-1,.34-1,1.59v8.91c0,1,.26,1.34.91,1.34s.95-.38.95-1.34Z"/><polyline class="cls-37" points="472.35 130.71 472.35 55.36 520.15 55.36"/><path class="cls-36" d="M549.52,79.94A18.65,18.65,0,0,0,547.65,87h5V90.3h-8.53V88.92a22.08,22.08,0,0,1,2.4-9.89c2.4-5.11,2.78-6,2.78-10.78,0-3.88-.34-4.41-1.11-4.41-1,0-1.25.72-1.25,3a22.79,22.79,0,0,0,.23,2.82l-2.86.27a21,21,0,0,1-.23-3.16c0-3.89,1.22-5.71,4.23-5.71s4.38,1.6,4.38,7.42A21.52,21.52,0,0,1,549.52,79.94Z"/><path class="cls-36" d="M563.33,86c0,3.12-1.9,4.53-4.6,4.53s-4.57-1.41-4.57-4.57V65.89c0-3.42,2-4.83,4.57-4.83s4.6,1.25,4.6,4.76Zm-3.46-20.75c0-1-.5-1.44-1.14-1.44s-1.11.41-1.11,1.4v21.4a1.09,1.09,0,0,0,1.15,1.18,1.1,1.1,0,0,0,1.1-1.18Z"/><path class="cls-36" d="M573.42,86.15c0,2.66-1.44,4.41-4.49,4.41s-4-1.79-4-5.56a22.81,22.81,0,0,1,.19-3.31L568,82a14.86,14.86,0,0,0-.19,2.47c0,3,.34,3.39,1.18,3.39.68,0,1-.38,1-1.56V78.87c0-1.94-.65-2.43-1.75-2.43h-.31V74h.15c1.15,0,1.79-.5,1.79-2.36V65.21c0-1.07-.3-1.41-.91-1.41-.88,0-1.14.68-1.14,3.65A11.58,11.58,0,0,0,568,69.7l-2.89.27a22.53,22.53,0,0,1-.2-3.2c0-4.08,1.3-5.68,4.19-5.68s4.11,1.3,4.11,4.27v6A3.39,3.39,0,0,1,570.57,75v.15a3.23,3.23,0,0,1,2.85,3.54Z"/><path class="cls-36" d="M581,90.3h-3.47V66.81h-2.7V64.48c2.55-.11,3.46-.87,3.84-3.12H581Z"/><polyline class="cls-37" points="537.87 130.71 537.87 55.36 585.67 55.36"/><g class="cls-38"><g class="cls-38"><g class="cls-39"><g class="cls-40"><path class="cls-36" d="M191.74,141.46s2.42,6,7.15,1.2c4.72,4.84,7.14-1.2,7.14-1.2a4.14,4.14,0,0,1-3.28,5.43,4,4,0,0,1-3.86-1.56,4,4,0,0,1-3.87,1.56,4.14,4.14,0,0,1-3.28-5.43M198.89,197,196.68,194v-.94a24.81,24.81,0,0,1-12.83-.53s8.06-.34,10.51-1.89c-15.76-6.88-18.11-30.77-5.15-42-7.75,12.22-5.3,30.81,7.24,38.21l-.92-37.65a6.12,6.12,0,0,0,3.36-2.66,6.09,6.09,0,0,0,3.36,2.66l-.93,37.65c12.54-7.4,15-26,7.24-38.21,13,11.21,10.61,35.1-5.15,42,2.45,1.55,10.51,1.89,10.51,1.89a24.81,24.81,0,0,1-12.83.53V194ZM187,147.73c-7.79,6.21-17.54,21.3-5.9,39.47-16.84-9.8-11.76-36.49,5.9-39.47m23.83,0c7.79,6.21,17.54,21.3,5.9,39.47,16.84-9.8,11.76-36.49-5.9-39.47"/></g></g></g></g></g></g></g></svg>