<svg width="127" height="119" viewBox="0 0 127 119" fill="none" xmlns="http://www.w3.org/2000/svg">
<path d="M62.4356 84.6729C62.5621 84.8344 62.7236 84.965 62.908 85.0549C63.0924 85.1447 63.2949 85.1914 63.5 85.1914C63.7051 85.1914 63.9076 85.1447 64.092 85.0549C64.2764 84.965 64.4379 84.8344 64.5644 84.6729L83.4862 60.7333C84.1789 59.8548 83.5538 58.5539 82.4219 58.5539H69.903V1.38281C69.903 0.639453 69.2948 0.03125 68.5515 0.03125H58.4147C57.6714 0.03125 57.0632 0.639453 57.0632 1.38281V58.537H44.5781C43.4462 58.537 42.8211 59.8379 43.5138 60.7164L62.4356 84.6729ZM125.334 78.7598H115.197C114.454 78.7598 113.846 79.368 113.846 80.1113V106.129H13.1543V80.1113C13.1543 79.368 12.5461 78.7598 11.8027 78.7598H1.66602C0.922656 78.7598 0.314453 79.368 0.314453 80.1113V113.562C0.314453 116.553 2.73037 118.969 5.7207 118.969H121.279C124.27 118.969 126.686 116.553 126.686 113.562V80.1113C126.686 79.368 126.077 78.7598 125.334 78.7598Z" fill="#CCCCCC"/>
</svg>
