<svg width="44" height="40" viewBox="0 0 44 40" fill="none" xmlns="http://www.w3.org/2000/svg">
<path d="M21.6432 28.4395C21.6856 28.4936 21.7397 28.5374 21.8015 28.5675C21.8634 28.5977 21.9312 28.6133 22 28.6133C22.0688 28.6133 22.1366 28.5977 22.1985 28.5675C22.2603 28.5374 22.3144 28.4936 22.3568 28.4395L28.7006 20.4135C28.9328 20.1189 28.7232 19.6828 28.3438 19.6828H24.1467V0.515625C24.1467 0.266406 23.9428 0.0625 23.6936 0.0625H20.2951C20.0459 0.0625 19.842 0.266406 19.842 0.515625V19.6771H15.6562C15.2768 19.6771 15.0672 20.1133 15.2994 20.4078L21.6432 28.4395ZM42.7305 26.457H39.332C39.0828 26.457 38.8789 26.6609 38.8789 26.9102V35.6328H5.12109V26.9102C5.12109 26.6609 4.91719 26.457 4.66797 26.457H1.26953C1.02031 26.457 0.816406 26.6609 0.816406 26.9102V38.125C0.816406 39.1275 1.62637 39.9375 2.62891 39.9375H41.3711C42.3736 39.9375 43.1836 39.1275 43.1836 38.125V26.9102C43.1836 26.6609 42.9797 26.457 42.7305 26.457Z" fill="white"/>
</svg>
