<?xml version="1.0" encoding="utf-8"?>
<!-- Generator: Adobe Illustrator 26.0.3, SVG Export Plug-In . SVG Version: 6.00 Build 0)  -->
<svg version="1.1" id="Layer_1" xmlns="http://www.w3.org/2000/svg" xmlns:xlink="http://www.w3.org/1999/xlink" x="0px" y="0px"
	 viewBox="0 0 216 66.59" style="enable-background:new 0 0 216 66.59;" xml:space="preserve">
<style type="text/css">
	.st0{fill:#C9CACC;}
	.st1{fill:#FFFFFF;}
</style>
<g>
	<g>
		<path class="st0" d="M37.71,25.71h12.97v3.65H42.2v4.99h7.07v3.65H42.2v8.56h-4.5V25.71z"/>
		<path class="st0" d="M53.07,25.71h7.27c5.64-0.09,8.21,2.51,8.06,8.15v4.56c0.15,5.64-2.4,8.21-8.06,8.15h-7.27V25.71z M59.52,43
			c3.39,0.03,4.32-0.99,4.38-4.94v-3.85c-0.06-3.94-0.99-4.96-4.38-4.94h-1.96V43H59.52z"/>
		<path class="st0" d="M71.44,25.71h7.27c5.64-0.09,8.21,2.51,8.06,8.15v4.56c0.15,5.64-2.4,8.21-8.06,8.15h-7.27V25.71z M77.9,43
			c3.39,0.03,4.32-0.99,4.38-4.94v-3.85c-0.06-3.94-0.99-4.96-4.38-4.94h-1.96V43H77.9z"/>
		<path class="st0" d="M94.81,25.71h2.45l5.52,17.32l5.52-17.32h2.45l-6.95,20.85h-2.04L94.81,25.71z"/>
		<path class="st0" d="M114.12,25.71h2.42v20.85h-2.42V25.71z"/>
		<path class="st0" d="M122.79,42.54c0.88,1.46,2.69,2.25,5.14,2.25c3.04,0,4.79-1.37,4.79-3.74c0-1.14-0.47-2.13-1.26-2.69
			c-0.79-0.55-0.79-0.55-3.86-1.31c-4.29-1.08-5.96-2.75-5.96-5.93c0-3.56,2.4-5.67,6.4-5.67c2.8,0,4.91,0.93,6.02,2.63l-1.84,1.2
			c-0.85-1.17-2.34-1.81-4.26-1.81c-2.45,0-3.94,1.31-3.94,3.5c0,2.13,1.23,3.18,4.79,4.09c2.8,0.67,3.3,0.88,4.32,1.58
			c1.28,0.88,1.96,2.34,1.96,4.29c0,3.8-2.54,5.9-7.16,5.9c-3.39,0-5.75-1.02-7.04-3.07L122.79,42.54z"/>
		<path class="st0" d="M141.87,25.71v13.2c0,2.1,0.2,3.12,0.76,4.03c0.85,1.28,1.99,1.84,3.94,1.84c2.07,0,3.33-0.64,4.12-2.13
			c0.41-0.82,0.58-1.84,0.58-3.74v-13.2h2.42v13.2c0,2.95-0.29,4.26-1.26,5.49c-1.29,1.69-3.1,2.42-5.87,2.42
			c-2.95,0-4.91-0.88-6.13-2.77c-0.76-1.17-0.99-2.42-0.99-5.14v-13.2H141.87z"/>
		<path class="st0" d="M160.85,42.01l-1.58,4.56h-2.63l7.62-20.85h2.31l7.62,20.85h-2.63l-1.58-4.56H160.85z M165.44,28.81
			L161.49,40h7.89L165.44,28.81z"/>
		<path class="st0" d="M177.21,25.71h2.42v18.81h9.81v2.04h-12.24V25.71z"/>
		<path class="st0" d="M192.95,42.54c0.88,1.46,2.69,2.25,5.14,2.25c3.04,0,4.79-1.37,4.79-3.74c0-1.14-0.47-2.13-1.26-2.69
			c-0.79-0.55-0.79-0.55-3.86-1.31c-4.29-1.08-5.96-2.75-5.96-5.93c0-3.56,2.4-5.67,6.4-5.67c2.8,0,4.91,0.93,6.02,2.63l-1.84,1.2
			c-0.85-1.17-2.34-1.81-4.26-1.81c-2.45,0-3.94,1.31-3.94,3.5c0,2.13,1.23,3.18,4.79,4.09c2.8,0.67,3.3,0.88,4.32,1.58
			c1.29,0.88,1.96,2.34,1.96,4.29c0,3.8-2.54,5.9-7.16,5.9c-3.39,0-5.75-1.02-7.04-3.07L192.95,42.54z"/>
	</g>
	<g>
		<path class="st1" d="M16.72,31.63c0,0,8.04-5.17,8.87-12.88c-0.6-2.76-1.33-4.56-1.33-4.56c0.71,7.19-7.05,12.17-7.05,12.17
			C7.72,31.44,6.85,39.59,7.21,44.08C8.21,39.35,10.9,34.75,16.72,31.63"/>
		<path class="st1" d="M8.54,55.99c0,0-4.17-13.65,9.47-20.94c0,0,7.76-4.98,7.06-12.17C25.07,22.88,35.93,49.74,8.54,55.99"/>
		<polygon class="st1" points="19.81,11.22 21.01,10.59 20.78,11.93 21.75,12.87 20.41,13.07 19.81,14.29 19.21,13.07 17.87,12.87 
			18.84,11.93 18.61,10.59 		"/>
		<polygon class="st1" points="18.89,16.71 19.95,16.16 19.75,17.34 20.6,18.17 19.42,18.35 18.89,19.42 18.36,18.35 17.17,18.17 
			18.03,17.34 17.83,16.16 		"/>
		<polygon class="st1" points="15.63,21.1 16.58,20.6 16.4,21.66 17.17,22.41 16.1,22.57 15.63,23.53 15.15,22.57 14.09,22.41 
			14.85,21.66 14.67,20.6 		"/>
		<polygon class="st1" points="11.84,24.99 12.62,24.58 12.47,25.45 13.1,26.06 12.24,26.19 11.84,26.98 11.46,26.19 10.59,26.06 
			11.22,25.45 11.06,24.58 		"/>
	</g>
</g>
</svg>
