<svg width="216" height="67" viewBox="0 0 216 67" fill="none" xmlns="http://www.w3.org/2000/svg">
<path d="M37.71 25.71H50.68V29.36H42.2V34.35H49.27V38H42.2V46.56H37.7V25.71H37.71Z" fill="#C9CACC"/>
<path d="M53.07 25.71H60.34C65.98 25.62 68.55 28.22 68.4 33.86V38.42C68.55 44.06 66 46.63 60.34 46.57H53.07V25.71V25.71ZM59.52 43C62.91 43.03 63.84 42.01 63.9 38.06V34.21C63.84 30.27 62.91 29.25 59.52 29.27H57.56V43H59.52Z" fill="#C9CACC"/>
<path d="M71.44 25.71H78.71C84.35 25.62 86.92 28.22 86.77 33.86V38.42C86.92 44.06 84.37 46.63 78.71 46.57H71.44V25.71ZM77.9 43C81.29 43.03 82.22 42.01 82.28 38.06V34.21C82.22 30.27 81.29 29.25 77.9 29.27H75.94V43H77.9Z" fill="#C9CACC"/>
<path d="M94.81 25.71H97.26L102.78 43.03L108.3 25.71H110.75L103.8 46.56H101.76L94.81 25.71Z" fill="#C9CACC"/>
<path d="M114.12 25.71H116.54V46.56H114.12V25.71Z" fill="#C9CACC"/>
<path d="M122.79 42.54C123.67 44 125.48 44.79 127.93 44.79C130.97 44.79 132.72 43.42 132.72 41.05C132.72 39.91 132.25 38.92 131.46 38.36C130.67 37.81 130.67 37.81 127.6 37.05C123.31 35.97 121.64 34.3 121.64 31.12C121.64 27.56 124.04 25.45 128.04 25.45C130.84 25.45 132.95 26.38 134.06 28.08L132.22 29.28C131.37 28.11 129.88 27.47 127.96 27.47C125.51 27.47 124.02 28.78 124.02 30.97C124.02 33.1 125.25 34.15 128.81 35.06C131.61 35.73 132.11 35.94 133.13 36.64C134.41 37.52 135.09 38.98 135.09 40.93C135.09 44.73 132.55 46.83 127.93 46.83C124.54 46.83 122.18 45.81 120.89 43.76L122.79 42.54Z" fill="#C9CACC"/>
<path d="M141.87 25.71V38.91C141.87 41.01 142.07 42.03 142.63 42.94C143.48 44.22 144.62 44.78 146.57 44.78C148.64 44.78 149.9 44.14 150.69 42.65C151.1 41.83 151.27 40.81 151.27 38.91V25.71H153.69V38.91C153.69 41.86 153.4 43.17 152.43 44.4C151.14 46.09 149.33 46.82 146.56 46.82C143.61 46.82 141.65 45.94 140.43 44.05C139.67 42.88 139.44 41.63 139.44 38.91V25.71H141.87V25.71Z" fill="#C9CACC"/>
<path d="M160.85 42.01L159.27 46.57H156.64L164.26 25.72H166.57L174.19 46.57H171.56L169.98 42.01H160.85ZM165.44 28.81L161.49 40H169.38L165.44 28.81Z" fill="#C9CACC"/>
<path d="M177.21 25.71H179.63V44.52H189.44V46.56H177.2V25.71H177.21Z" fill="#C9CACC"/>
<path d="M192.95 42.54C193.83 44 195.64 44.79 198.09 44.79C201.13 44.79 202.88 43.42 202.88 41.05C202.88 39.91 202.41 38.92 201.62 38.36C200.83 37.81 200.83 37.81 197.76 37.05C193.47 35.97 191.8 34.3 191.8 31.12C191.8 27.56 194.2 25.45 198.2 25.45C201 25.45 203.11 26.38 204.22 28.08L202.38 29.28C201.53 28.11 200.04 27.47 198.12 27.47C195.67 27.47 194.18 28.78 194.18 30.97C194.18 33.1 195.41 34.15 198.97 35.06C201.77 35.73 202.27 35.94 203.29 36.64C204.58 37.52 205.25 38.98 205.25 40.93C205.25 44.73 202.71 46.83 198.09 46.83C194.7 46.83 192.34 45.81 191.05 43.76L192.95 42.54Z" fill="#C9CACC"/>
<path d="M16.72 31.63C16.72 31.63 24.76 26.46 25.59 18.75C24.99 15.99 24.26 14.19 24.26 14.19C24.97 21.38 17.21 26.36 17.21 26.36C7.72 31.44 6.85 39.59 7.21 44.08C8.21 39.35 10.9 34.75 16.72 31.63Z" fill="white"/>
<path d="M8.54 55.99C8.54 55.99 4.37 42.34 18.01 35.05C18.01 35.05 25.77 30.07 25.07 22.88C25.07 22.88 35.93 49.74 8.54 55.99Z" fill="white"/>
<path d="M19.81 11.22L21.01 10.59L20.78 11.93L21.75 12.87L20.41 13.07L19.81 14.29L19.21 13.07L17.87 12.87L18.84 11.93L18.61 10.59L19.81 11.22Z" fill="white"/>
<path d="M18.89 16.71L19.95 16.16L19.75 17.34L20.6 18.17L19.42 18.35L18.89 19.42L18.36 18.35L17.17 18.17L18.03 17.34L17.83 16.16L18.89 16.71Z" fill="white"/>
<path d="M15.63 21.1L16.58 20.6L16.4 21.66L17.17 22.41L16.1 22.57L15.63 23.53L15.15 22.57L14.09 22.41L14.85 21.66L14.67 20.6L15.63 21.1Z" fill="white"/>
<path d="M11.84 24.99L12.62 24.58L12.47 25.45L13.1 26.06L12.24 26.19L11.84 26.98L11.46 26.19L10.59 26.06L11.22 25.45L11.06 24.58L11.84 24.99Z" fill="white"/>
</svg>
